<?xml version="1.0" encoding="utf-8"?>
<!-- Generator: Adobe Illustrator 21.0.0, SVG Export Plug-In . SVG Version: 6.00 Build 0)  -->
<svg version="1.1" id="objects" xmlns="http://www.w3.org/2000/svg" xmlns:xlink="http://www.w3.org/1999/xlink" x="0px" y="0px"
	 viewBox="0 0 55.6 55.6" style="enable-background:new 0 0 55.6 55.6;" xml:space="preserve">
<style type="text/css">
	.st0{fill:#202020;}
</style>
<g>
	<path class="st0" d="M50,0H5.6C2.5,0,0,2.5,0,5.6V50c0,3.1,2.5,5.6,5.6,5.6H50c3.1,0,5.6-2.5,5.6-5.6V5.6C55.6,2.5,53.1,0,50,0
		L50,0z M27.8,16.7c6.1,0,11.1,5,11.1,11.1c0,6.1-5,11.1-11.1,11.1c-6.1,0-11.1-5-11.1-11.1C16.7,21.7,21.7,16.7,27.8,16.7
		L27.8,16.7z M6.9,50c-0.8,0-1.4-0.6-1.4-1.4V25h5.8c-0.3,0.8-0.3,2-0.3,2.8c0,9.2,7.5,16.7,16.7,16.7c9.2,0,16.7-7.5,16.7-16.7
		c0-0.8,0-1.9-0.3-2.8H50v23.6c0,0.8-0.6,1.4-1.4,1.4H6.9z M50,12.5c0,0.8-0.6,1.4-1.4,1.4h-5.6c-0.8,0-1.4-0.6-1.4-1.4V6.9
		c0-0.8,0.6-1.4,1.4-1.4h5.6c0.8,0,1.4,0.6,1.4,1.4V12.5z M50,12.5"/>
</g>
</svg>
