<?xml version="1.0" encoding="utf-8"?>
<!-- Generator: Adobe Illustrator 21.0.0, SVG Export Plug-In . SVG Version: 6.00 Build 0)  -->
<svg version="1.1" id="objects" xmlns="http://www.w3.org/2000/svg" xmlns:xlink="http://www.w3.org/1999/xlink" x="0px" y="0px"
	 viewBox="0 0 59 56.4" style="enable-background:new 0 0 59 56.4;" xml:space="preserve">
<style type="text/css">
	.st0{fill:#202020;}
</style>
<g>
	<path class="st0" d="M59,34.6v21.8H46.4V36c0-5.1-1.8-8.6-6.4-8.6c-3.5,0-5.6,2.4-6.5,4.6c-0.3,0.8-0.4,1.9-0.4,3.1v21.3H20.4
		c0,0,0.2-34.5,0-38.1h12.7v5.4c0,0-0.1,0.1-0.1,0.1h0.1v-0.1c1.7-2.6,4.7-6.3,11.4-6.3C52.8,17.5,59,22.9,59,34.6L59,34.6z M7.2,0
		C2.8,0,0,2.8,0,6.6c0,3.7,2.8,6.6,7,6.6h0.1c4.4,0,7.2-2.9,7.2-6.6C14.1,2.8,11.5,0,7.2,0L7.2,0z M0.8,56.4h12.6V18.3H0.8V56.4z
		 M0.8,56.4"/>
</g>
</svg>
