<?xml version="1.0" encoding="utf-8"?>
<!-- Generator: Adobe Illustrator 21.0.0, SVG Export Plug-In . SVG Version: 6.00 Build 0)  -->
<svg version="1.1" id="objects" xmlns="http://www.w3.org/2000/svg" xmlns:xlink="http://www.w3.org/1999/xlink" x="0px" y="0px"
	 viewBox="0 0 67.7 55" style="enable-background:new 0 0 67.7 55;" xml:space="preserve">
<style type="text/css">
	.st0{fill:#202020;}
</style>
<g>
	<path class="st0" d="M67.7,6.5c-2.5,1.1-5.2,1.9-8,2.2C62.6,7,64.8,4.3,65.8,1c-2.7,1.6-5.7,2.7-8.8,3.4C54.5,1.7,50.9,0,46.9,0
		C39.2,0,33,6.2,33,13.9c0,1.1,0.1,2.1,0.4,3.2C21.8,16.5,11.6,10.9,4.7,2.5C3.5,4.6,2.8,7,2.8,9.5c0,4.8,2.5,9.1,6.2,11.6
		c-2.3-0.1-4.4-0.7-6.3-1.7c0,0.1,0,0.1,0,0.2c0,6.7,4.8,12.3,11.1,13.6c-1.2,0.3-2.4,0.5-3.7,0.5c-0.9,0-1.8-0.1-2.6-0.2
		c1.8,5.5,6.9,9.5,13,9.6C15.8,46.7,9.8,49,3.3,49c-1.1,0-2.2-0.1-3.3-0.2C6.1,52.7,13.4,55,21.3,55c25.5,0,39.5-21.2,39.5-39.5
		c0-0.6,0-1.2,0-1.8C63.5,11.7,65.8,9.3,67.7,6.5L67.7,6.5z M67.7,6.5"/>
</g>
</svg>
