<?xml version="1.0" encoding="utf-8"?>
<!-- Generator: Adobe Illustrator 21.0.0, SVG Export Plug-In . SVG Version: 6.00 Build 0)  -->
<svg version="1.1" id="Layer_1" xmlns="http://www.w3.org/2000/svg" xmlns:xlink="http://www.w3.org/1999/xlink" x="0px" y="0px"
	 viewBox="0 0 559.8 108" style="enable-background:new 0 0 559.8 108;" xml:space="preserve">
<style type="text/css">
	.st0{fill:#FFFFFF;}
	.st1{fill:#FFC627;}
</style>
<g>
	<g>
		<path class="st0" d="M366.4,2.1h44.5c6.5,0,12.5,0.8,17.8,2.4c5.3,1.6,9.9,4,13.6,7.1c3.8,3.1,6.6,6.9,8.7,11.5
			c2,4.5,3,9.7,3,15.4v0.3c0,6.1-1.1,11.5-3.3,16.2c-2.2,4.6-5.3,8.6-9.3,11.7c-4,3.2-8.7,5.5-14.2,7.1c-5.5,1.6-11.4,2.4-17.9,2.4
			h-14.2v29.7h-28.8V2.1z M408.8,53.7c5.1,0,9.2-1.2,12.1-3.7c2.9-2.4,4.4-5.7,4.4-9.9v-0.3c0-4.5-1.5-7.9-4.4-10.2
			c-2.9-2.3-7-3.5-12.2-3.5h-13.5v27.6H408.8z"/>
		<path class="st0" d="M514.7,108c-8.1,0-15.6-1.3-22.5-3.9c-6.9-2.6-12.8-6.3-17.9-11c-5-4.7-9-10.4-11.9-17
			c-2.9-6.6-4.3-13.8-4.3-21.7V54c0-7.5,1.4-14.6,4.2-21.1c2.8-6.6,6.7-12.3,11.6-17.2c4.9-4.9,10.8-8.7,17.7-11.5
			c6.9-2.8,14.3-4.2,22.3-4.2c9.2,0,17.1,1.3,23.8,4c6.7,2.7,12.8,6.4,18.3,11.1l-16.9,20.3c-3.8-3.2-7.6-5.6-11.5-7.3
			c-3.9-1.7-8.4-2.5-13.6-2.5c-3.8,0-7.2,0.7-10.5,2.2c-3.2,1.5-6,3.5-8.4,6.1c-2.4,2.6-4.3,5.6-5.6,9c-1.4,3.5-2.1,7.2-2.1,11.1
			v0.3c0,4.2,0.7,8,2.1,11.6c1.4,3.6,3.3,6.6,5.9,9.1c2.5,2.5,5.5,4.5,8.9,5.9c3.4,1.4,7.2,2.2,11.4,2.2c6.7,0,12.3-1.4,16.7-4.3
			V66.3H512V45.2h47.8v46.7c-5.5,4.5-12.1,8.4-19.6,11.4C532.7,106.4,524.2,108,514.7,108z"/>
	</g>
	<g>
		<rect x="237.2" y="2.1" class="st1" width="28.9" height="103.8"/>
		<polygon class="st1" points="343.3,2.1 343.3,57 300.6,2.1 273.8,2.1 273.8,105.9 302.3,105.9 302.3,49 346.6,105.9 371.8,105.9 
			371.8,2.1 		"/>
		<path class="st1" d="M201,2.1h-28.8v19.7c-9.6-12.2-24.9-20-42.9-20c-27.7,0-49.3,18.8-53.4,43.4H53.8v21.1h20.5v12.6
			c-4.3,2.8-9.6,4.3-16.6,4.3c-16.5,0-28.2-12-28.2-28.8v-0.3h0.1c0-15.9,11.6-28.5,26.5-28.5c6.5,0,11.9,1.5,16.9,4.2
			c3.6-8.3,8.9-15.6,15.6-21.6C79.6,3,69.2,0,56,0c0,0,0,0-0.1,0C23.7,0,0,23.7,0,54v0.3C0,85.8,24.2,108,56.5,108
			c16,0,29.4-5,39.8-12.1c8.9,6.4,20.2,10.2,32.7,10.2c18,0,33.4-7.9,43.2-20.3v20h57.4V80.7H201V2.1z M154.9,54.3
			c0,14.5-10.2,26.8-25.5,26.8c-15.2,0-25.6-12.6-25.6-27.1v-0.3c0-14.5,10.2-26.8,25.4-26.8c15.3,0,25.8,12.6,25.8,27.1V54.3z"/>
	</g>
</g>
</svg>
